HIERARCHY
ROOT Hips
{
	OFFSET 0.000000 0.000000 0.000000
	CHANNELS 6 Xposition Yposition Zposition Xrotation Yrotation Zrotation
	JOINT LeftUpLeg_virtual
	{
		OFFSET 0.000000 0.000000 0.000000
		CHANNELS 3 Xrotation Yrotation Zrotation
		JOINT LeftUpLeg
		{
			OFFSET 13.026900 -6.336304 -1.092800
			CHANNELS 3 Xrotation Yrotation Zrotation
			JOINT LeftLeg
			{
				OFFSET 0.524474 -46.096886 9.782700
				CHANNELS 3 Xrotation Yrotation Zrotation
				JOINT LeftFoot
				{
					OFFSET -0.524474 -53.427422 -12.948200
					CHANNELS 3 Xrotation Yrotation Zrotation
					JOINT LeftToeBase
					{
						OFFSET 0.192200 -14.009700 16.364100
						CHANNELS 3 Xrotation Yrotation Zrotation
						JOINT LeftToe_End
						{
							OFFSET -1.784700 -0.561700 9.474800
							CHANNELS 3 Xrotation Yrotation Zrotation
							End Site
							{
								OFFSET 0 0 0
							}
						}
					}
				}
			}
		}
	}
	JOINT RightUpLeg_virtual
	{
		OFFSET 0.000000 0.000000 0.000000
		CHANNELS 3 Xrotation Yrotation Zrotation
		JOINT RightUpLeg
		{
			OFFSET -12.883000 -6.336304 -1.092800
			CHANNELS 3 Xrotation Yrotation Zrotation
			JOINT RightLeg
			{
				OFFSET -0.524587 -46.096825 9.782800
				CHANNELS 3 Xrotation Yrotation Zrotation
				JOINT RightFoot
				{
					OFFSET 0.524587 -53.427383 -12.948300
					CHANNELS 3 Xrotation Yrotation Zrotation
					JOINT RightToeBase
					{
						OFFSET -0.192200 -14.009700 16.364100
						CHANNELS 3 Xrotation Yrotation Zrotation
						JOINT RightToe_End
						{
							OFFSET 1.784700 -0.561700 9.474800
							CHANNELS 3 Xrotation Yrotation Zrotation
							End Site
							{
								OFFSET 0 0 0
							}
						}
					}
				}
			}
		}
	}
	JOINT Spine_virtual
	{
		OFFSET 0.000000 0.000000 0.000000
		CHANNELS 3 Xrotation Yrotation Zrotation
		JOINT Spine
		{
			OFFSET 0.072000 7.257294 -0.789700
			CHANNELS 3 Xrotation Yrotation Zrotation
			JOINT Spine1
			{
				OFFSET 0.000000 12.508769 -0.658067
				CHANNELS 3 Xrotation Yrotation Zrotation
				JOINT Spine1_split
				{
					OFFSET 0.000000 12.508769 -0.658067
					CHANNELS 3 Xrotation Yrotation Zrotation
					JOINT Spine2
					{
						OFFSET 0.000000 12.508769 -0.658067
						CHANNELS 3 Xrotation Yrotation Zrotation
						JOINT Neck_virtual
						{
							OFFSET 0.000000 0.000000 0.000000
							CHANNELS 3 Xrotation Yrotation Zrotation
							JOINT Neck
							{
								OFFSET 0.000000 14.033295 7.520400
								CHANNELS 3 Xrotation Yrotation Zrotation
								JOINT Head
								{
									OFFSET 0.000000 8.198502 5.703100
									CHANNELS 3 Xrotation Yrotation Zrotation
									JOINT HeadTop_End
									{
										OFFSET 0.000000 17.760803 13.332701
										CHANNELS 3 Xrotation Yrotation Zrotation
										End Site
										{
											OFFSET 0 0 0
										}
									}
								}
							}
						}
						JOINT LeftShoulder_virtual
						{
							OFFSET 0.000000 0.000000 0.000000
							CHANNELS 3 Xrotation Yrotation Zrotation
							JOINT LeftShoulder
							{
								OFFSET 6.292450 5.785301 -0.669000
								CHANNELS 3 Xrotation Yrotation Zrotation
								JOINT LeftShoulder_split
								{
									OFFSET 6.292450 5.785301 -0.669000
									CHANNELS 3 Xrotation Yrotation Zrotation
									JOINT LeftArm
									{
										OFFSET 13.907140 -6.093903 1.965100
										CHANNELS 3 Xrotation Yrotation Zrotation
										JOINT LeftForeArm
										{
											OFFSET 34.140198 0.000000 0.000000
											CHANNELS 3 Xrotation Yrotation Zrotation
											JOINT LeftHand
											{
												OFFSET 40.960209 0.000000 0.000000
												CHANNELS 3 Xrotation Yrotation Zrotation
												End Site
												{
													OFFSET 0 0 0
												}
											}
										}
									}
								}
							}
						}
						JOINT RightShoulder_virtual
						{
							OFFSET 0.000000 0.000000 0.000000
							CHANNELS 3 Xrotation Yrotation Zrotation
							JOINT RightShoulder
							{
								OFFSET -6.292450 5.785301 -0.669000
								CHANNELS 3 Xrotation Yrotation Zrotation
								JOINT RightShoulder_split
								{
									OFFSET -6.292450 5.785301 -0.669000
									CHANNELS 3 Xrotation Yrotation Zrotation
									JOINT RightArm
									{
										OFFSET -13.907140 -6.093903 1.965100
										CHANNELS 3 Xrotation Yrotation Zrotation
										JOINT RightForeArm
										{
											OFFSET -34.140198 0.000000 0.000000
											CHANNELS 3 Xrotation Yrotation Zrotation
											JOINT RightHand
											{
												OFFSET -40.960209 0.000000 0.000000
												CHANNELS 3 Xrotation Yrotation Zrotation
												End Site
												{
													OFFSET 0 0 0
												}
											}
										}
									}
								}
							}
						}
					}
				}
			}
		}
	}
}
MOTION
Frames: 9
Frame Time: 0.03333333
52.446507 109.145447 22.762989 0.000000 0.000000 0.000000 6.753588 -52.706186 3.431735 -12.873569 10.479301 -3.231290 39.709770 5.740740 6.811302 -14.087597 14.226910 3.222919 -15.071354 0.528741 0.085973 0.000000 0.000000 0.000000 8.562777 -54.752610 4.794472 -38.621219 23.089287 -12.591896 42.980683 6.244597 -2.801996 28.903626 -11.796660 49.102459 -0.834040 4.506910 -5.090000 0.000000 0.000000 0.000000 10.317000 -42.082080 3.468924 6.273342 11.043819 6.361375 -1.391315 9.445965 -3.590270 0.257185 -1.002141 0.167906 0.000000 0.000000 0.000000 5.733917 10.681237 -2.335273 -15.756546 8.705904 13.332752 10.511939 -25.488509 11.783177 0.000000 0.000000 0.000000 1.822935 8.412698 -2.989550 -6.893206 -24.169420 -25.081595 -0.504098 4.329249 -7.607339 -25.935519 37.167868 -54.699891 10.344964 -44.915191 1.418376 0.000000 0.000000 0.000000 -1.104520 7.386493 -1.208331 11.602698 -15.417929 0.753625 -6.494945 -0.524050 -2.351061 21.450388 -36.197195 53.776111 173.701109 54.916685 -159.736705 0.000000 0.000000 0.000000 
52.427395 108.878937 26.928062 0.000000 0.000000 0.000000 5.865405 -50.246164 1.556973 -12.247446 11.329777 -3.836798 41.014784 4.854739 7.764698 -14.589653 9.898627 3.683129 -18.270508 0.856077 -0.479990 0.000000 0.000000 0.000000 8.319182 -52.518441 3.364422 -44.833089 25.837631 -7.698820 49.400545 7.128744 -2.709363 29.004180 -9.974330 45.381580 0.943617 3.406057 -3.608096 0.000000 0.000000 0.000000 9.818171 -39.850093 2.182549 6.850743 10.015645 7.086430 -1.271221 8.781027 -3.704535 0.227748 -1.054767 0.161608 0.000000 0.000000 0.000000 5.742726 10.086797 -2.246805 -15.695396 10.401893 13.311416 10.867105 -24.999867 11.880035 0.000000 0.000000 0.000000 1.964684 7.831374 -2.898896 -6.850845 -25.907490 -24.936932 0.306241 3.988507 -7.984603 -27.830000 35.524015 -53.606033 13.994555 -47.068586 5.140270 0.000000 0.000000 0.000000 -1.215694 6.623856 -1.267760 11.801973 -14.635907 1.299142 -5.274428 -0.243446 -2.547018 23.515044 -39.909304 56.610893 173.136457 52.982505 -159.018443 0.000000 0.000000 0.000000 
52.530109 109.043777 30.969084 0.000000 0.000000 0.000000 5.292550 -47.143564 -0.262085 -11.772972 11.908989 -4.232955 41.085709 3.761631 8.648042 -14.721199 4.718137 3.769022 -20.957218 1.191416 -1.082795 0.000000 0.000000 0.000000 7.819820 -49.449077 1.509229 -49.292632 26.469379 -2.786228 52.902885 6.824803 -2.144491 26.927777 -9.578970 40.456484 2.827264 2.429764 -2.583140 0.000000 0.000000 0.000000 9.779446 -36.828984 0.823054 7.498893 8.829826 8.017729 -1.052299 8.221598 -3.828485 0.195401 -1.066560 0.152735 0.000000 0.000000 0.000000 5.743508 9.560369 -2.140626 -15.561867 12.006390 13.160093 10.920504 -25.154458 12.003521 0.000000 0.000000 0.000000 2.111629 7.363597 -2.851364 -6.763092 -27.734084 -24.709951 0.990624 3.565721 -8.471518 -29.481729 33.758476 -52.599594 17.368923 -49.639762 8.737403 0.000000 0.000000 0.000000 -1.276256 5.956404 -1.377925 11.916307 -14.044297 1.795752 -4.126206 0.171444 -2.391124 23.979174 -42.903273 58.529380 172.150478 51.874132 -157.932798 0.000000 0.000000 0.000000 
52.769943 109.710464 35.308693 0.000000 0.000000 0.000000 5.211465 -43.338209 -1.729865 -10.981777 12.113433 -4.530093 39.942905 2.752946 9.242531 -14.670449 -0.521605 3.778063 -22.448293 1.524027 -1.689124 0.000000 0.000000 0.000000 6.761468 -46.230436 -0.545174 -52.612964 25.638012 1.017277 53.450444 5.436129 -1.222979 25.464791 -9.198007 36.475874 4.707593 1.564842 -1.957313 0.000000 0.000000 0.000000 9.945155 -33.081891 -0.580936 8.129762 7.446783 9.017203 -0.684837 7.802796 -3.970298 0.167431 -1.031024 0.120926 0.000000 0.000000 0.000000 5.782583 9.151180 -2.039910 -15.310521 13.433603 12.977401 10.915953 -25.969933 12.252267 0.000000 0.000000 0.000000 2.298117 7.042049 -2.884220 -6.618116 -29.519323 -24.387704 1.515075 2.918955 -9.061229 -30.690683 31.796122 -51.787041 20.578539 -52.968943 12.330371 0.000000 0.000000 0.000000 -1.208927 5.445851 -1.549201 11.964979 -13.738394 2.134662 -2.889196 0.818663 -1.724187 22.736901 -44.786220 59.155155 170.916318 51.117204 -156.636769 0.000000 0.000000 0.000000 
53.162334 110.586517 39.707127 0.000000 0.000000 0.000000 5.490844 -38.817126 -2.889701 -9.732882 12.186710 -4.730720 37.898937 2.304819 9.389815 -14.721493 -5.112608 4.098710 -22.813930 1.810515 -2.241486 0.000000 0.000000 0.000000 6.240405 -42.175599 -2.060948 -54.850766 24.490275 3.507983 50.341868 3.720311 -0.480973 24.822192 -8.564402 34.505890 6.162520 0.749926 -1.791997 0.000000 0.000000 0.000000 9.991847 -28.647958 -1.946009 8.705734 5.878106 9.980738 -0.185743 7.509731 -4.122053 0.166604 -0.927252 0.105957 0.000000 0.000000 0.000000 5.860793 8.864273 -1.986418 -14.898620 14.610483 12.836574 11.093876 -27.349640 12.639795 0.000000 0.000000 0.000000 2.540320 6.840058 -2.968805 -6.393765 -31.287710 -23.934192 1.863572 2.150500 -9.829962 -31.423248 29.579493 -51.232344 23.897935 -57.106126 16.226426 0.000000 0.000000 0.000000 -1.009743 5.110806 -1.785877 11.947916 -13.622705 2.346866 -1.881745 1.458695 -0.554431 20.075895 -45.333957 58.534837 169.767904 50.293715 -155.390314 0.000000 0.000000 0.000000 
53.596748 111.183228 44.078701 0.000000 0.000000 0.000000 6.105521 -33.807531 -3.765031 -7.831662 12.367809 -5.017335 35.196685 2.679086 9.107390 -15.363894 -8.756285 5.144362 -22.761192 1.979308 -2.542933 0.000000 0.000000 0.000000 6.793578 -37.255957 -2.881036 -55.614368 23.652050 4.934901 43.316339 1.827349 -0.298856 23.667003 -8.312931 33.522893 6.966799 0.014045 -2.168391 0.000000 0.000000 0.000000 9.756607 -23.797749 -3.200140 9.233934 4.155544 10.850581 0.393496 7.334333 -4.273661 0.205026 -0.794081 0.088773 0.000000 0.000000 0.000000 5.957979 8.693434 -1.996551 -14.365512 15.395936 12.768054 11.658393 -29.309609 13.181374 0.000000 0.000000 0.000000 2.829408 6.763306 -3.089024 -6.086495 -33.012722 -23.368072 2.116882 1.274088 -10.631003 -31.797679 27.157297 -50.912008 27.930218 -61.860368 21.017365 0.000000 0.000000 0.000000 -0.644026 4.956634 -2.099130 11.881014 -13.648949 2.444797 -0.955424 2.146650 0.979752 16.565295 -44.735868 57.216566 168.825119 49.452281 -154.285176 0.000000 0.000000 0.000000 
54.109070 111.567871 48.343491 0.000000 0.000000 0.000000 6.891097 -28.942233 -4.294246 -5.665162 12.413532 -5.244192 32.300415 3.363403 8.605085 -16.532907 -11.494089 5.963043 -22.378058 2.073361 -2.655858 0.000000 0.000000 0.000000 8.031454 -31.717957 -3.349617 -55.107390 22.922718 5.420839 34.503595 -0.660578 -0.602892 21.895333 -9.237329 32.222230 9.282797 -0.596836 -2.890914 0.000000 0.000000 0.000000 9.312562 -18.837831 -4.214863 9.655558 2.331522 11.623852 0.958172 7.255913 -4.429399 0.231077 -0.665579 0.056301 0.000000 0.000000 0.000000 6.040292 8.629875 -2.070065 -13.817591 15.686214 12.833584 12.800604 -31.792154 13.876643 0.000000 0.000000 0.000000 3.148122 6.817443 -3.223139 -5.740686 -34.670901 -22.754196 2.511487 0.311245 -11.299581 -32.130969 24.615771 -50.784570 33.748392 -66.756247 27.715584 0.000000 0.000000 0.000000 -0.139512 4.945634 -2.500253 11.783811 -13.686282 2.438930 -0.249648 2.741117 2.721573 12.931554 -43.411467 55.767569 168.062392 48.861138 -153.291302 0.000000 0.000000 0.000000 
54.676849 111.747826 52.043236 0.000000 0.000000 0.000000 7.438345 -24.064672 -4.544860 -3.700173 12.080986 -5.427299 29.765906 4.017967 7.972908 -18.014241 -13.522497 6.026592 -21.586739 2.090970 -2.668661 0.000000 0.000000 0.000000 8.684242 -26.459007 -3.940897 -54.524481 21.512169 5.126279 25.929913 -3.825326 -1.252518 20.098564 -11.283538 30.711775 13.170362 -1.049340 -3.833379 0.000000 0.000000 0.000000 8.952955 -13.887320 -4.886860 9.977871 0.544997 12.318683 1.409869 7.253587 -4.586722 0.231832 -0.583250 0.033783 0.000000 0.000000 0.000000 6.118489 8.664129 -2.180275 -13.337415 15.442223 13.014037 14.553782 -34.753789 14.704467 0.000000 0.000000 0.000000 3.453418 6.986872 -3.351047 -5.394915 -36.254760 -22.137184 3.031023 -0.581574 -11.859471 -32.651200 22.059815 -50.911803 42.795728 -71.095726 37.651616 0.000000 0.000000 0.000000 0.430173 5.030071 -2.977501 11.725300 -13.636170 2.467850 0.330898 3.272070 4.488195 9.921763 -41.898477 54.934125 167.240856 49.076012 -152.174962 0.000000 0.000000 0.000000 
54.987404 111.876221 55.314140 0.000000 0.000000 0.000000 7.814253 -19.419462 -4.609279 -2.122985 11.174969 -5.672531 27.897843 4.657207 7.323343 -19.582427 -14.817535 5.654174 -20.231247 2.029886 -2.680807 0.000000 0.000000 0.000000 8.533592 -21.316728 -4.464748 -54.077685 19.135246 4.239342 18.511179 -6.824106 -2.285976 18.179163 -13.433574 30.517179 13.522386 -1.301657 -5.284240 0.000000 0.000000 0.000000 9.002876 -9.259133 -5.286294 10.225951 -1.053174 13.043039 1.621463 7.312868 -4.705212 0.207687 -0.564824 0.004887 0.000000 0.000000 0.000000 6.188840 8.746139 -2.279475 -12.929403 14.738015 13.254866 16.883263 -38.093546 15.568747 0.000000 0.000000 0.000000 3.697981 7.232074 -3.447208 -5.079985 -37.691771 -21.581390 3.812372 -1.541260 -12.196855 -33.304248 19.572259 -51.441153 56.137195 -74.106139 51.764573 0.000000 0.000000 0.000000 1.013747 5.159507 -3.521778 11.723564 -13.464377 2.529249 0.792258 4.081174 6.189543 8.125137 -40.674261 55.060108 166.207244 50.220947 -150.817817 0.000000 0.000000 0.000000 
